<svg width="732.0" height="1400.0" viewBox="0 0 732.0 1400.0" class="keymap" xmlns="http://www.w3.org/2000/svg" xmlns:xlink="http://www.w3.org/1999/xlink">
<defs>/* start glyphs */
<svg id="tabler:screenshot">
<svg xmlns="http://www.w3.org/2000/svg" class="icon icon-tabler icon-tabler-screenshot" viewBox="0 0 24 24" stroke-width="2" stroke="currentColor" fill="none" stroke-linecap="round" stroke-linejoin="round">
  <path stroke="none" d="M0 0h24v24H0z" fill="none"/>
  <path d="M7 19a2 2 0 0 1 -2 -2" />
  <path d="M5 13v-2" />
  <path d="M5 7a2 2 0 0 1 2 -2" />
  <path d="M11 5h2" />
  <path d="M17 5a2 2 0 0 1 2 2" />
  <path d="M19 11v2" />
  <path d="M19 17v4" />
  <path d="M21 19h-4" />
  <path d="M13 19h-2" />
</svg>



</svg>
<svg id="mdi:apple-keyboard-control">
<svg xmlns="http://www.w3.org/2000/svg" id="mdi-apple-keyboard-control" viewBox="0 0 24 24"><path d="M19.78,11.78L18.36,13.19L12,6.83L5.64,13.19L4.22,11.78L12,4L19.78,11.78Z" /></svg>
</svg>
<svg id="mdi:arrow-left-bold">
<svg xmlns="http://www.w3.org/2000/svg" id="mdi-arrow-left-bold" viewBox="0 0 24 24"><path d="M20,9V15H12V19.84L4.16,12L12,4.16V9H20Z" /></svg>
</svg>
<svg id="mdi:progress-download">
<svg xmlns="http://www.w3.org/2000/svg" id="mdi-progress-download" viewBox="0 0 24 24"><path d="M13,2.03C17.73,2.5 21.5,6.25 21.95,11C22.5,16.5 18.5,21.38 13,21.93V19.93C16.64,19.5 19.5,16.61 19.96,12.97C20.5,8.58 17.39,4.59 13,4.05V2.05L13,2.03M11,2.06V4.06C9.57,4.26 8.22,4.84 7.1,5.74L5.67,4.26C7.19,3 9.05,2.25 11,2.06M4.26,5.67L5.69,7.1C4.8,8.23 4.24,9.58 4.05,11H2.05C2.25,9.04 3,7.19 4.26,5.67M2.06,13H4.06C4.24,14.42 4.81,15.77 5.69,16.9L4.27,18.33C3.03,16.81 2.26,14.96 2.06,13M7.1,18.37C8.23,19.25 9.58,19.82 11,20V22C9.04,21.79 7.18,21 5.67,19.74L7.1,18.37M12,16.5L7.5,12H11V8H13V12H16.5L12,16.5Z" /></svg>
</svg>
<svg id="mdi:code-brackets">
<svg xmlns="http://www.w3.org/2000/svg" id="mdi-code-brackets" viewBox="0 0 24 24"><path d="M15,4V6H18V18H15V20H20V4M4,4V20H9V18H6V6H9V4H4Z" /></svg>
</svg>
<svg id="mdi:apple-keyboard-option">
<svg xmlns="http://www.w3.org/2000/svg" id="mdi-apple-keyboard-option" viewBox="0 0 24 24"><path d="M3,4H9.11L16.15,18H21V20H14.88L7.84,6H3V4M14,4H21V6H14V4Z" /></svg>
</svg>
<svg id="mdi:keyboard-tab">
<svg xmlns="http://www.w3.org/2000/svg" id="mdi-keyboard-tab" viewBox="0 0 24 24"><path d="M20,18H22V6H20M11.59,7.41L15.17,11H1V13H15.17L11.59,16.58L13,18L19,12L13,6L11.59,7.41Z" /></svg>
</svg>
<svg id="mdi:keyboard-esc">
<svg xmlns="http://www.w3.org/2000/svg" id="mdi-keyboard-esc" viewBox="0 0 24 24"><path d="M1 7H7V9H3V11H7V13H3V15H7V17H1V7M11 7H15V9H11V11H13C14.11 11 15 11.9 15 13V15C15 16.11 14.11 17 13 17H9V15H13V13H11C9.9 13 9 12.11 9 11V9C9 7.9 9.9 7 11 7M19 7H21C22.11 7 23 7.9 23 9V10H21V9H19V15H21V14H23V15C23 16.11 22.11 17 21 17H19C17.9 17 17 16.11 17 15V9C17 7.9 17.9 7 19 7Z" /></svg>
</svg>
<svg id="mdi:apple-keyboard-shift">
<svg xmlns="http://www.w3.org/2000/svg" id="mdi-apple-keyboard-shift" viewBox="0 0 24 24"><path d="M15,18V12H17.17L12,6.83L6.83,12H9V18H15M12,4L22,14H17V20H7V14H2L12,4Z" /></svg>
</svg>
<svg id="mdi:code-parentheses">
<svg xmlns="http://www.w3.org/2000/svg" id="mdi-code-parentheses" viewBox="0 0 24 24"><path d="M17.62,3C19.13,5.27 20,8.55 20,12C20,15.44 19.13,18.72 17.62,21L16,19.96C17.26,18.07 18,15.13 18,12C18,8.87 17.26,5.92 16,4.03L17.62,3M6.38,3L8,4.04C6.74,5.92 6,8.87 6,12C6,15.13 6.74,18.08 8,19.96L6.38,21C4.87,18.73 4,15.45 4,12C4,8.55 4.87,5.27 6.38,3Z" /></svg>
</svg>
<svg id="mdi:arrow-up-bold">
<svg xmlns="http://www.w3.org/2000/svg" id="mdi-arrow-up-bold" viewBox="0 0 24 24"><path d="M15,20H9V12H4.16L12,4.16L19.84,12H15V20Z" /></svg>
</svg>
<svg id="mdi:code-braces">
<svg xmlns="http://www.w3.org/2000/svg" id="mdi-code-braces" viewBox="0 0 24 24"><path d="M8,3A2,2 0 0,0 6,5V9A2,2 0 0,1 4,11H3V13H4A2,2 0 0,1 6,15V19A2,2 0 0,0 8,21H10V19H8V14A2,2 0 0,0 6,12A2,2 0 0,0 8,10V5H10V3M16,3A2,2 0 0,1 18,5V9A2,2 0 0,0 20,11H21V13H20A2,2 0 0,0 18,15V19A2,2 0 0,1 16,21H14V19H16V14A2,2 0 0,1 18,12A2,2 0 0,1 16,10V5H14V3H16Z" /></svg>
</svg>
<svg id="mdi:minus-circle-outline">
<svg xmlns="http://www.w3.org/2000/svg" id="mdi-minus-circle-outline" viewBox="0 0 24 24"><path d="M12,20C7.59,20 4,16.41 4,12C4,7.59 7.59,4 12,4C16.41,4 20,7.59 20,12C20,16.41 16.41,20 12,20M12,2A10,10 0 0,0 2,12A10,10 0 0,0 12,22A10,10 0 0,0 22,12A10,10 0 0,0 12,2M7,13H17V11H7" /></svg>
</svg>
<svg id="mdi:arrow-down-bold">
<svg xmlns="http://www.w3.org/2000/svg" id="mdi-arrow-down-bold" viewBox="0 0 24 24"><path d="M9,4H15V12H19.84L12,19.84L4.16,12H9V4Z" /></svg>
</svg>
<svg id="mdi:bluetooth-connect">
<svg xmlns="http://www.w3.org/2000/svg" id="mdi-bluetooth-connect" viewBox="0 0 24 24"><path d="M19,10L17,12L19,14L21,12M14.88,16.29L13,18.17V14.41M13,5.83L14.88,7.71L13,9.58M17.71,7.71L12,2H11V9.58L6.41,5L5,6.41L10.59,12L5,17.58L6.41,19L11,14.41V22H12L17.71,16.29L13.41,12M7,12L5,10L3,12L5,14L7,12Z" /></svg>
</svg>
<svg id="mdi:alpha-w-box">
<svg xmlns="http://www.w3.org/2000/svg" id="mdi-alpha-w-box" viewBox="0 0 24 24"><path d="M9,17H15A2,2 0 0,0 17,15V7H15V15H13V8H11V15H9V7H7V15A2,2 0 0,0 9,17M5,3H19A2,2 0 0,1 21,5V19A2,2 0 0,1 19,21H5A2,2 0 0,1 3,19V5A2,2 0 0,1 5,3Z" /></svg>
</svg>
<svg id="mdi:backup-restore">
<svg xmlns="http://www.w3.org/2000/svg" id="mdi-backup-restore" viewBox="0 0 24 24"><path d="M12,3A9,9 0 0,0 3,12H0L4,16L8,12H5A7,7 0 0,1 12,5A7,7 0 0,1 19,12A7,7 0 0,1 12,19C10.5,19 9.09,18.5 7.94,17.7L6.5,19.14C8.04,20.3 9.94,21 12,21A9,9 0 0,0 21,12A9,9 0 0,0 12,3M14,12A2,2 0 0,0 12,10A2,2 0 0,0 10,12A2,2 0 0,0 12,14A2,2 0 0,0 14,12Z" /></svg>
</svg>
<svg id="mdi:backspace">
<svg xmlns="http://www.w3.org/2000/svg" id="mdi-backspace" viewBox="0 0 24 24"><path d="M22,3H7C6.31,3 5.77,3.35 5.41,3.88L0,12L5.41,20.11C5.77,20.64 6.31,21 7,21H22A2,2 0 0,0 24,19V5A2,2 0 0,0 22,3M19,15.59L17.59,17L14,13.41L10.41,17L9,15.59L12.59,12L9,8.41L10.41,7L14,10.59L17.59,7L19,8.41L15.41,12" /></svg>
</svg>
<svg id="mdi:apple-keyboard-command">
<svg xmlns="http://www.w3.org/2000/svg" id="mdi-apple-keyboard-command" viewBox="0 0 24 24"><path d="M6,2A4,4 0 0,1 10,6V8H14V6A4,4 0 0,1 18,2A4,4 0 0,1 22,6A4,4 0 0,1 18,10H16V14H18A4,4 0 0,1 22,18A4,4 0 0,1 18,22A4,4 0 0,1 14,18V16H10V18A4,4 0 0,1 6,22A4,4 0 0,1 2,18A4,4 0 0,1 6,14H8V10H6A4,4 0 0,1 2,6A4,4 0 0,1 6,2M16,18A2,2 0 0,0 18,20A2,2 0 0,0 20,18A2,2 0 0,0 18,16H16V18M14,10H10V14H14V10M6,16A2,2 0 0,0 4,18A2,2 0 0,0 6,20A2,2 0 0,0 8,18V16H6M8,6A2,2 0 0,0 6,4A2,2 0 0,0 4,6A2,2 0 0,0 6,8H8V6M18,8A2,2 0 0,0 20,6A2,2 0 0,0 18,4A2,2 0 0,0 16,6V8H18Z" /></svg>
</svg>
<svg id="mdi:keyboard-return">
<svg xmlns="http://www.w3.org/2000/svg" id="mdi-keyboard-return" viewBox="0 0 24 24"><path d="M19,7V11H5.83L9.41,7.41L8,6L2,12L8,18L9.41,16.58L5.83,13H21V7H19Z" /></svg>
</svg>
<svg id="mdi:arrow-right-bold">
<svg xmlns="http://www.w3.org/2000/svg" id="mdi-arrow-right-bold" viewBox="0 0 24 24"><path d="M4,15V9H12V4.16L19.84,12L12,19.84V15H4Z" /></svg>
</svg>
<svg id="mdi:keyboard-space">
<svg xmlns="http://www.w3.org/2000/svg" id="mdi-keyboard-space" viewBox="0 0 24 24"><path d="M3 15H5V19H19V15H21V19C21 20.1 20.1 21 19 21H5C3.9 21 3 20.1 3 19V15Z" /></svg>
</svg>
<svg id="mdi:transfer">
<svg xmlns="http://www.w3.org/2000/svg" id="mdi-transfer" viewBox="0 0 24 24"><path d="M8 4A2 2 0 0 0 6 6V10H8V6H16V9H13.5L17 12.5L20.5 9H18V6A2 2 0 0 0 16 4H8M3 12V14H11V12H3M3 15V17H11V15H3M13 15V17H21V15H13M3 18V20H11V18H3M13 18V20H21V18H13Z" /></svg>
</svg>
</defs>/* end glyphs */
<style>/* inherit to force styles through use tags*/
svg path {
    fill: inherit;
}
/* font and background color specifications */
svg.keymap {
    font-family: SFMono-Regular,Consolas,Liberation Mono,Menlo,monospace;
    font-size: 14px;
    font-kerning: normal;
    text-rendering: optimizeLegibility;
    fill: #24292e;
}

/* default key styling */
rect.key {
    fill: #f6f8fa;
    stroke: #c9cccf;
    stroke-width: 1;
}

/* default key side styling, only used is draw_key_sides is set */
rect.side {
    filter: brightness(90%);
}

/* color accent for combo boxes */
rect.combo {
    fill: #cdf;
}

/* color accent for held keys */
rect.held, rect.combo.held {
    fill: #fdd;
}

/* color accent for ghost (optional) keys */
rect.ghost, rect.combo.ghost {
    stroke-dasharray: 4, 4;
    stroke-width: 2;
}

text {
    text-anchor: middle;
    dominant-baseline: middle;
}

/* styling for layer labels */
text.label {
    font-weight: bold;
    text-anchor: start;
    stroke: white;
    stroke-width: 2;
    paint-order: stroke;
}

/* styling for combo tap, and key hold/shifted label text */
text.combo, text.hold, text.shifted {
    font-size: 11px;
}

text.hold {
    text-anchor: middle;
    dominant-baseline: auto;
}

text.shifted {
    text-anchor: middle;
    dominant-baseline: hanging;
}

/* styling for hold/shifted label text in combo box */
text.combo.hold, text.combo.shifted {
    font-size: 8px;
}

/* lighter symbol for transparent keys */
text.trans {
    fill: #7b7e81;
}

/* styling for combo dendrons */
path.combo {
    stroke-width: 1;
    stroke: gray;
    fill: none;
}

/* Start Tabler Icons Cleanup */
/* cannot use height/width with glyphs */
.icon-tabler > path {
    fill: inherit;
    stroke: inherit;
}
/* hide tabler's default box */
.icon-tabler > path[stroke="none"][fill="none"] {
    visibility: collapse;
}
/* End Tabler Icons Cleanup */
</style>
<g class="layer-default">
<text x="30.0" y="28.0" class="label">default:</text>
<g class="key keypos-0">
<rect rx="6" ry="6" x="32" y="110" width="52" height="52" class="key"/>
<text x="58" y="136" class="key tap">Q</text>
</g>
<g class="key keypos-1">
<rect rx="6" ry="6" x="88" y="75" width="52" height="52" class="key"/>
<text x="114" y="101" class="key tap">W</text>
</g>
<g class="key keypos-2">
<rect rx="6" ry="6" x="144" y="58" width="52" height="52" class="key"/>
<text x="170" y="84" class="key tap">F</text>
</g>
<g class="key keypos-3">
<rect rx="6" ry="6" x="200" y="74" width="52" height="52" class="key"/>
<text x="226" y="100" class="key tap">P</text>
</g>
<g class="key keypos-4">
<rect rx="6" ry="6" x="256" y="82" width="52" height="52" class="key"/>
<text x="282" y="108" class="key tap">G</text>
</g>
<g class="key keypos-5">
<rect rx="6" ry="6" x="424" y="82" width="52" height="52" class="key"/>
<text x="450" y="108" class="key tap">J</text>
</g>
<g class="key keypos-6">
<rect rx="6" ry="6" x="480" y="74" width="52" height="52" class="key"/>
<text x="506" y="100" class="key tap">L</text>
</g>
<g class="key keypos-7">
<rect rx="6" ry="6" x="536" y="58" width="52" height="52" class="key"/>
<text x="562" y="84" class="key tap">U</text>
</g>
<g class="key keypos-8">
<rect rx="6" ry="6" x="592" y="75" width="52" height="52" class="key"/>
<text x="618" y="101" class="key tap">Y</text>
</g>
<g class="key keypos-9">
<rect rx="6" ry="6" x="648" y="110" width="52" height="52" class="key"/>
<text x="674" y="136" class="key tap">;</text>
<text x="674" y="112" class="key shifted">:</text>
</g>
<g class="key keypos-10">
<rect rx="6" ry="6" x="32" y="166" width="52" height="52" class="key"/>
<text x="58" y="192" class="key tap">A</text>
<use href="#mdi:apple-keyboard-control" xlink:href="#mdi:apple-keyboard-control" x="50" y="200" height="16" width="16.0" class="key hold glyph mdi:apple-keyboard-control"/>
</g>
<g class="key keypos-11">
<rect rx="6" ry="6" x="88" y="131" width="52" height="52" class="key"/>
<text x="114" y="157" class="key tap">R</text>
<use href="#mdi:apple-keyboard-option" xlink:href="#mdi:apple-keyboard-option" x="106" y="165" height="16" width="16.0" class="key hold glyph mdi:apple-keyboard-option"/>
</g>
<g class="key keypos-12">
<rect rx="6" ry="6" x="144" y="114" width="52" height="52" class="key"/>
<text x="170" y="140" class="key tap">S</text>
<use href="#mdi:apple-keyboard-command" xlink:href="#mdi:apple-keyboard-command" x="162" y="148" height="16" width="16.0" class="key hold glyph mdi:apple-keyboard-command"/>
</g>
<g class="key keypos-13">
<rect rx="6" ry="6" x="200" y="130" width="52" height="52" class="key"/>
<text x="226" y="156" class="key tap">T</text>
<use href="#mdi:apple-keyboard-shift" xlink:href="#mdi:apple-keyboard-shift" x="218" y="164" height="16" width="16.0" class="key hold glyph mdi:apple-keyboard-shift"/>
</g>
<g class="key keypos-14">
<rect rx="6" ry="6" x="256" y="138" width="52" height="52" class="key"/>
<text x="282" y="164" class="key tap">D</text>
</g>
<g class="key keypos-15">
<rect rx="6" ry="6" x="424" y="138" width="52" height="52" class="key"/>
<text x="450" y="164" class="key tap">H</text>
</g>
<g class="key keypos-16">
<rect rx="6" ry="6" x="480" y="130" width="52" height="52" class="key"/>
<text x="506" y="156" class="key tap">N</text>
<use href="#mdi:apple-keyboard-shift" xlink:href="#mdi:apple-keyboard-shift" x="498" y="164" height="16" width="16.0" class="key hold glyph mdi:apple-keyboard-shift"/>
</g>
<g class="key keypos-17">
<rect rx="6" ry="6" x="536" y="114" width="52" height="52" class="key"/>
<text x="562" y="140" class="key tap">E</text>
<use href="#mdi:apple-keyboard-command" xlink:href="#mdi:apple-keyboard-command" x="554" y="148" height="16" width="16.0" class="key hold glyph mdi:apple-keyboard-command"/>
</g>
<g class="key keypos-18">
<rect rx="6" ry="6" x="592" y="131" width="52" height="52" class="key"/>
<text x="618" y="157" class="key tap">I</text>
<use href="#mdi:apple-keyboard-option" xlink:href="#mdi:apple-keyboard-option" x="610" y="165" height="16" width="16.0" class="key hold glyph mdi:apple-keyboard-option"/>
</g>
<g class="key keypos-19">
<rect rx="6" ry="6" x="648" y="166" width="52" height="52" class="key"/>
<text x="674" y="192" class="key tap">O</text>
<use href="#mdi:apple-keyboard-control" xlink:href="#mdi:apple-keyboard-control" x="666" y="200" height="16" width="16.0" class="key hold glyph mdi:apple-keyboard-control"/>
</g>
<g class="key keypos-20">
<rect rx="6" ry="6" x="32" y="222" width="52" height="52" class="key"/>
<text x="58" y="248" class="key tap">Z</text>
</g>
<g class="key keypos-21">
<rect rx="6" ry="6" x="88" y="187" width="52" height="52" class="key"/>
<text x="114" y="213" class="key tap">X</text>
</g>
<g class="key keypos-22">
<rect rx="6" ry="6" x="144" y="170" width="52" height="52" class="key"/>
<text x="170" y="196" class="key tap">C</text>
</g>
<g class="key keypos-23">
<rect rx="6" ry="6" x="200" y="186" width="52" height="52" class="key"/>
<text x="226" y="212" class="key tap">V</text>
</g>
<g class="key keypos-24">
<rect rx="6" ry="6" x="256" y="194" width="52" height="52" class="key"/>
<text x="282" y="220" class="key tap">B</text>
</g>
<g class="key keypos-25">
<rect rx="6" ry="6" x="424" y="194" width="52" height="52" class="key"/>
<text x="450" y="220" class="key tap">K</text>
</g>
<g class="key keypos-26">
<rect rx="6" ry="6" x="480" y="186" width="52" height="52" class="key"/>
<text x="506" y="212" class="key tap">M</text>
</g>
<g class="key keypos-27">
<rect rx="6" ry="6" x="536" y="170" width="52" height="52" class="key"/>
<text x="562" y="196" class="key tap">,</text>
<text x="562" y="172" class="key shifted">&lt;</text>
</g>
<g class="key keypos-28">
<rect rx="6" ry="6" x="592" y="187" width="52" height="52" class="key"/>
<text x="618" y="213" class="key tap">.</text>
<text x="618" y="189" class="key shifted">&gt;</text>
</g>
<g class="key keypos-29">
<rect rx="6" ry="6" x="648" y="222" width="52" height="52" class="key"/>
<text x="674" y="248" class="key tap">/</text>
<text x="674" y="224" class="key shifted">?</text>
</g>
<g class="key keypos-30">
<rect rx="6" ry="6" x="228" y="268" width="52" height="52" class="key"/>
<text x="254" y="294" class="key tap">&#x27;</text>
<use href="#mdi:apple-keyboard-command" xlink:href="#mdi:apple-keyboard-command" x="246" y="302" height="16" width="16.0" class="key hold glyph mdi:apple-keyboard-command"/>
<text x="254" y="270" class="key shifted">&quot;</text>
</g>
<g class="key keypos-31">
<rect rx="6" ry="6" x="284" y="282" width="52" height="52" class="key"/>
<use href="#mdi:keyboard-return" xlink:href="#mdi:keyboard-return" x="300" y="298" height="20" width="20.0" class="key tap glyph mdi:keyboard-return"/>
<text x="310" y="332" class="key hold">lower</text>
</g>
<g class="key keypos-32">
<rect rx="6" ry="6" x="396" y="282" width="52" height="52" class="key"/>
<use href="#mdi:keyboard-space" xlink:href="#mdi:keyboard-space" x="412" y="298" height="20" width="20.0" class="key tap glyph mdi:keyboard-space"/>
<text x="422" y="332" class="key hold">raise</text>
</g>
<g class="key keypos-33">
<rect rx="6" ry="6" x="452" y="268" width="52" height="52" class="key"/>
<use href="#mdi:keyboard-tab" xlink:href="#mdi:keyboard-tab" x="468" y="284" height="20" width="20.0" class="key tap glyph mdi:keyboard-tab"/>
<use href="#mdi:apple-keyboard-option" xlink:href="#mdi:apple-keyboard-option" x="470" y="302" height="16" width="16.0" class="key hold glyph mdi:apple-keyboard-option"/>
</g>
<g class="combo combopos-0">
<rect rx="6" ry="6" x="128" y="80" width="28" height="26" class="combo"/>
<use href="#mdi:keyboard-esc" xlink:href="#mdi:keyboard-esc" x="132" y="83" height="20" width="20.0" class="combo tap glyph mdi:keyboard-esc"/>
</g>
<g class="combo combopos-1">
<rect rx="6" ry="6" x="576" y="192" width="28" height="26" class="combo"/>
<use href="#mdi:keyboard-return" xlink:href="#mdi:keyboard-return" x="580" y="195" height="20" width="20.0" class="combo tap glyph mdi:keyboard-return"/>
</g>
<g class="combo combopos-2">
<rect rx="6" ry="6" x="576" y="80" width="28" height="26" class="combo"/>
<use href="#mdi:backspace" xlink:href="#mdi:backspace" x="580" y="83" height="20" width="20.0" class="combo tap glyph mdi:backspace"/>
</g>
<g class="combo combopos-3">
<path d="M366,108 l-65,0" class="combo"/>
<path d="M366,108 l65,0" class="combo"/>
<rect rx="6" ry="6" x="352" y="95" width="28" height="26" class="combo"/>
<use href="#mdi:code-brackets" xlink:href="#mdi:code-brackets" x="356" y="98" height="20" width="20.0" class="combo tap glyph mdi:code-brackets"/>
</g>
<g class="combo combopos-4">
<path d="M366,164 l-65,0" class="combo"/>
<path d="M366,164 l65,0" class="combo"/>
<rect rx="6" ry="6" x="352" y="151" width="28" height="26" class="combo"/>
<use href="#mdi:code-parentheses" xlink:href="#mdi:code-parentheses" x="356" y="154" height="20" width="20.0" class="combo tap glyph mdi:code-parentheses"/>
</g>
<g class="combo combopos-5">
<path d="M366,220 l65,0" class="combo"/>
<path d="M366,220 l-65,0" class="combo"/>
<rect rx="6" ry="6" x="352" y="207" width="28" height="26" class="combo"/>
<use href="#mdi:code-braces" xlink:href="#mdi:code-braces" x="356" y="210" height="20" width="20.0" class="combo tap glyph mdi:code-braces"/>
</g>
<g class="combo combopos-6">
<rect rx="6" ry="6" x="128" y="192" width="28" height="26" class="combo"/>
<use href="#mdi:alpha-w-box" xlink:href="#mdi:alpha-w-box" x="132" y="195" height="20" width="20.0" class="combo tap glyph mdi:alpha-w-box"/>
</g>
</g>
<g class="layer-lower">
<text x="30.0" y="364.0" class="label">lower:</text>
<g class="key keypos-0">
<rect rx="6" ry="6" x="32" y="446" width="52" height="52" class="key"/>
<text x="58" y="472" class="key tap">!</text>
</g>
<g class="key keypos-1">
<rect rx="6" ry="6" x="88" y="411" width="52" height="52" class="key"/>
<text x="114" y="437" class="key tap">@</text>
</g>
<g class="key keypos-2">
<rect rx="6" ry="6" x="144" y="394" width="52" height="52" class="key"/>
<text x="170" y="420" class="key tap">#</text>
</g>
<g class="key keypos-3">
<rect rx="6" ry="6" x="200" y="410" width="52" height="52" class="key"/>
<text x="226" y="436" class="key tap">$</text>
</g>
<g class="key keypos-4">
<rect rx="6" ry="6" x="256" y="418" width="52" height="52" class="key"/>
<text x="282" y="444" class="key tap">%</text>
</g>
<g class="key keypos-5">
<rect rx="6" ry="6" x="424" y="418" width="52" height="52" class="key"/>
<text x="450" y="444" class="key tap">^</text>
</g>
<g class="key keypos-6">
<rect rx="6" ry="6" x="480" y="410" width="52" height="52" class="key"/>
<text x="506" y="436" class="key tap">&amp;</text>
</g>
<g class="key keypos-7">
<rect rx="6" ry="6" x="536" y="394" width="52" height="52" class="key"/>
<text x="562" y="420" class="key tap">*</text>
</g>
<g class="key keypos-8">
<rect rx="6" ry="6" x="592" y="411" width="52" height="52" class="key"/>
<text x="618" y="437" class="key tap">(</text>
</g>
<g class="key keypos-9">
<rect rx="6" ry="6" x="648" y="446" width="52" height="52" class="key"/>
<text x="674" y="472" class="key tap">)</text>
</g>
<g class="key keypos-10">
<rect rx="6" ry="6" x="32" y="502" width="52" height="52" class="key"/>
<text x="58" y="528" class="key tap">_</text>
</g>
<g class="key keypos-11">
<rect rx="6" ry="6" x="88" y="467" width="52" height="52" class="key"/>
<text x="114" y="493" class="key tap">+</text>
</g>
<g class="key keypos-12">
<rect rx="6" ry="6" x="144" y="450" width="52" height="52" class="key"/>
<text x="170" y="476" class="key tap">{</text>
</g>
<g class="key keypos-13">
<rect rx="6" ry="6" x="200" y="466" width="52" height="52" class="key"/>
<text x="226" y="492" class="key tap">}</text>
</g>
<g class="key keypos-14">
<rect rx="6" ry="6" x="256" y="474" width="52" height="52" class="key"/>
<text x="282" y="500" class="key tap">|</text>
</g>
<g class="key keypos-15">
<rect rx="6" ry="6" x="424" y="474" width="52" height="52" class="key"/>
<use href="#mdi:arrow-left-bold" xlink:href="#mdi:arrow-left-bold" x="440" y="490" height="20" width="20.0" class="key tap glyph mdi:arrow-left-bold"/>
</g>
<g class="key keypos-16">
<rect rx="6" ry="6" x="480" y="466" width="52" height="52" class="key"/>
<use href="#mdi:arrow-down-bold" xlink:href="#mdi:arrow-down-bold" x="496" y="482" height="20" width="20.0" class="key tap glyph mdi:arrow-down-bold"/>
</g>
<g class="key keypos-17">
<rect rx="6" ry="6" x="536" y="450" width="52" height="52" class="key"/>
<use href="#mdi:arrow-up-bold" xlink:href="#mdi:arrow-up-bold" x="552" y="466" height="20" width="20.0" class="key tap glyph mdi:arrow-up-bold"/>
</g>
<g class="key keypos-18">
<rect rx="6" ry="6" x="592" y="467" width="52" height="52" class="key"/>
<use href="#mdi:arrow-right-bold" xlink:href="#mdi:arrow-right-bold" x="608" y="483" height="20" width="20.0" class="key tap glyph mdi:arrow-right-bold"/>
</g>
<g class="key keypos-19">
<rect rx="6" ry="6" x="648" y="502" width="52" height="52" class="key"/>
<text x="674" y="528" class="key tap">;</text>
<text x="674" y="504" class="key shifted">:</text>
</g>
<g class="key keypos-20">
<rect rx="6" ry="6" x="32" y="558" width="52" height="52" class="key"/>
<use href="#mdi:keyboard-esc" xlink:href="#mdi:keyboard-esc" x="48" y="574" height="20" width="20.0" class="key tap glyph mdi:keyboard-esc"/>
</g>
<g class="key keypos-21">
<rect rx="6" ry="6" x="88" y="523" width="52" height="52" class="key"/>
<use href="#mdi:apple-keyboard-command" xlink:href="#mdi:apple-keyboard-command" x="104" y="539" height="20" width="20.0" class="key tap glyph mdi:apple-keyboard-command"/>
</g>
<g class="key keypos-22">
<rect rx="6" ry="6" x="144" y="506" width="52" height="52" class="key"/>
<use href="#mdi:apple-keyboard-option" xlink:href="#mdi:apple-keyboard-option" x="160" y="522" height="20" width="20.0" class="key tap glyph mdi:apple-keyboard-option"/>
</g>
<g class="key keypos-23">
<rect rx="6" ry="6" x="200" y="522" width="52" height="52" class="key"/>
<use href="#mdi:keyboard-tab" xlink:href="#mdi:keyboard-tab" x="216" y="538" height="20" width="20.0" class="key tap glyph mdi:keyboard-tab"/>
</g>
<g class="key keypos-24">
<rect rx="6" ry="6" x="256" y="530" width="52" height="52" class="key"/>
<text x="282" y="556" class="key tap">&quot;</text>
</g>
<g class="key keypos-25">
<rect rx="6" ry="6" x="424" y="530" width="52" height="52" class="key"/>
<text x="450" y="556" class="key tap">HOME</text>
</g>
<g class="key keypos-26">
<rect rx="6" ry="6" x="480" y="522" width="52" height="52" class="key"/>
<text x="506" y="548" class="key tap">END</text>
</g>
<g class="key keypos-27">
<rect rx="6" ry="6" x="536" y="506" width="52" height="52" class="key"/>
<text x="562" y="532" class="key tap">
<tspan x="562.0" dy="-0.6em">PAGE</tspan><tspan x="562.0" dy="1.2em">UP</tspan>
</text>
</g>
<g class="key keypos-28">
<rect rx="6" ry="6" x="592" y="523" width="52" height="52" class="key"/>
<text x="618" y="549" class="key tap">
<tspan x="618.0" dy="-0.6em">PAGE</tspan><tspan x="618.0" dy="1.2em">DOWN</tspan>
</text>
</g>
<g class="key keypos-29">
<rect rx="6" ry="6" x="648" y="558" width="52" height="52" class="key"/>
<text x="674" y="584" class="key tap">PSCRN</text>
</g>
<g class="key trans keypos-30">
<rect rx="6" ry="6" x="228" y="604" width="52" height="52" class="key trans"/>
<use href="#mdi:transfer" xlink:href="#mdi:transfer" x="244" y="620" height="20" width="20.0" class="key trans tap glyph mdi:transfer"/>
</g>
<g class="key held keypos-31">
<rect rx="6" ry="6" x="284" y="618" width="52" height="52" class="key held"/>
</g>
<g class="key keypos-32">
<rect rx="6" ry="6" x="396" y="618" width="52" height="52" class="key"/>
<text x="422" y="644" class="key tap">adjust</text>
</g>
<g class="key trans keypos-33">
<rect rx="6" ry="6" x="452" y="604" width="52" height="52" class="key trans"/>
<use href="#mdi:transfer" xlink:href="#mdi:transfer" x="468" y="620" height="20" width="20.0" class="key trans tap glyph mdi:transfer"/>
</g>
<g class="combo combopos-0">
<rect rx="6" ry="6" x="128" y="416" width="28" height="26" class="combo"/>
<use href="#mdi:keyboard-esc" xlink:href="#mdi:keyboard-esc" x="132" y="419" height="20" width="20.0" class="combo tap glyph mdi:keyboard-esc"/>
</g>
<g class="combo combopos-1">
<rect rx="6" ry="6" x="576" y="528" width="28" height="26" class="combo"/>
<use href="#mdi:keyboard-return" xlink:href="#mdi:keyboard-return" x="580" y="531" height="20" width="20.0" class="combo tap glyph mdi:keyboard-return"/>
</g>
<g class="combo combopos-2">
<rect rx="6" ry="6" x="576" y="416" width="28" height="26" class="combo"/>
<use href="#mdi:backspace" xlink:href="#mdi:backspace" x="580" y="419" height="20" width="20.0" class="combo tap glyph mdi:backspace"/>
</g>
<g class="combo combopos-3">
<path d="M366,444 l-65,0" class="combo"/>
<path d="M366,444 l65,0" class="combo"/>
<rect rx="6" ry="6" x="352" y="431" width="28" height="26" class="combo"/>
<use href="#mdi:code-brackets" xlink:href="#mdi:code-brackets" x="356" y="434" height="20" width="20.0" class="combo tap glyph mdi:code-brackets"/>
</g>
<g class="combo combopos-4">
<path d="M366,500 l-65,0" class="combo"/>
<path d="M366,500 l65,0" class="combo"/>
<rect rx="6" ry="6" x="352" y="487" width="28" height="26" class="combo"/>
<use href="#mdi:code-parentheses" xlink:href="#mdi:code-parentheses" x="356" y="490" height="20" width="20.0" class="combo tap glyph mdi:code-parentheses"/>
</g>
<g class="combo combopos-5">
<path d="M366,556 l65,0" class="combo"/>
<path d="M366,556 l-65,0" class="combo"/>
<rect rx="6" ry="6" x="352" y="543" width="28" height="26" class="combo"/>
<use href="#mdi:code-braces" xlink:href="#mdi:code-braces" x="356" y="546" height="20" width="20.0" class="combo tap glyph mdi:code-braces"/>
</g>
<g class="combo combopos-6">
<rect rx="6" ry="6" x="128" y="528" width="28" height="26" class="combo"/>
<use href="#mdi:alpha-w-box" xlink:href="#mdi:alpha-w-box" x="132" y="531" height="20" width="20.0" class="combo tap glyph mdi:alpha-w-box"/>
</g>
</g>
<g class="layer-raise">
<text x="30.0" y="700.0" class="label">raise:</text>
<g class="key keypos-0">
<rect rx="6" ry="6" x="32" y="782" width="52" height="52" class="key"/>
<text x="58" y="808" class="key tap">1</text>
<text x="58" y="784" class="key shifted">!</text>
</g>
<g class="key keypos-1">
<rect rx="6" ry="6" x="88" y="747" width="52" height="52" class="key"/>
<text x="114" y="773" class="key tap">2</text>
<text x="114" y="749" class="key shifted">@</text>
</g>
<g class="key keypos-2">
<rect rx="6" ry="6" x="144" y="730" width="52" height="52" class="key"/>
<text x="170" y="756" class="key tap">3</text>
<text x="170" y="732" class="key shifted">#</text>
</g>
<g class="key keypos-3">
<rect rx="6" ry="6" x="200" y="746" width="52" height="52" class="key"/>
<text x="226" y="772" class="key tap">4</text>
<text x="226" y="748" class="key shifted">$</text>
</g>
<g class="key keypos-4">
<rect rx="6" ry="6" x="256" y="754" width="52" height="52" class="key"/>
<text x="282" y="780" class="key tap">5</text>
<text x="282" y="756" class="key shifted">%</text>
</g>
<g class="key keypos-5">
<rect rx="6" ry="6" x="424" y="754" width="52" height="52" class="key"/>
<text x="450" y="780" class="key tap">6</text>
<text x="450" y="756" class="key shifted">^</text>
</g>
<g class="key keypos-6">
<rect rx="6" ry="6" x="480" y="746" width="52" height="52" class="key"/>
<text x="506" y="772" class="key tap">7</text>
<text x="506" y="748" class="key shifted">&amp;</text>
</g>
<g class="key keypos-7">
<rect rx="6" ry="6" x="536" y="730" width="52" height="52" class="key"/>
<text x="562" y="756" class="key tap">8</text>
<text x="562" y="732" class="key shifted">*</text>
</g>
<g class="key keypos-8">
<rect rx="6" ry="6" x="592" y="747" width="52" height="52" class="key"/>
<text x="618" y="773" class="key tap">9</text>
<text x="618" y="749" class="key shifted">(</text>
</g>
<g class="key keypos-9">
<rect rx="6" ry="6" x="648" y="782" width="52" height="52" class="key"/>
<text x="674" y="808" class="key tap">0</text>
<text x="674" y="784" class="key shifted">)</text>
</g>
<g class="key keypos-10">
<rect rx="6" ry="6" x="32" y="838" width="52" height="52" class="key"/>
<text x="58" y="864" class="key tap">-</text>
<text x="58" y="840" class="key shifted">_</text>
</g>
<g class="key keypos-11">
<rect rx="6" ry="6" x="88" y="803" width="52" height="52" class="key"/>
<text x="114" y="829" class="key tap">=</text>
<text x="114" y="805" class="key shifted">+</text>
</g>
<g class="key keypos-12">
<rect rx="6" ry="6" x="144" y="786" width="52" height="52" class="key"/>
<text x="170" y="812" class="key tap">[</text>
<text x="170" y="788" class="key shifted">{</text>
</g>
<g class="key keypos-13">
<rect rx="6" ry="6" x="200" y="802" width="52" height="52" class="key"/>
<text x="226" y="828" class="key tap">]</text>
<text x="226" y="804" class="key shifted">}</text>
</g>
<g class="key keypos-14">
<rect rx="6" ry="6" x="256" y="810" width="52" height="52" class="key"/>
<text x="282" y="836" class="key tap">\</text>
<text x="282" y="812" class="key shifted">|</text>
</g>
<g class="key keypos-15">
<rect rx="6" ry="6" x="424" y="810" width="52" height="52" class="key"/>
<text x="450" y="836" class="key tap" style="font-size: 78%">LG(GRAVE)</text>
</g>
<g class="key none keypos-16">
<rect rx="6" ry="6" x="480" y="802" width="52" height="52" class="key none"/>
<use href="#mdi:minus-circle-outline" xlink:href="#mdi:minus-circle-outline" x="496" y="818" height="20" width="20.0" class="key none tap glyph mdi:minus-circle-outline"/>
</g>
<g class="key keypos-17">
<rect rx="6" ry="6" x="536" y="786" width="52" height="52" class="key"/>
<text x="562" y="812" class="key tap">`</text>
<text x="562" y="788" class="key shifted">~</text>
</g>
<g class="key keypos-18">
<rect rx="6" ry="6" x="592" y="803" width="52" height="52" class="key"/>
<text x="618" y="829" class="key tap">~</text>
</g>
<g class="key keypos-19">
<rect rx="6" ry="6" x="648" y="838" width="52" height="52" class="key"/>
<text x="674" y="864" class="key tap">:</text>
</g>
<g class="key keypos-20">
<rect rx="6" ry="6" x="32" y="894" width="52" height="52" class="key"/>
<use href="#mdi:keyboard-esc" xlink:href="#mdi:keyboard-esc" x="48" y="910" height="20" width="20.0" class="key tap glyph mdi:keyboard-esc"/>
</g>
<g class="key keypos-21">
<rect rx="6" ry="6" x="88" y="859" width="52" height="52" class="key"/>
<use href="#mdi:apple-keyboard-control" xlink:href="#mdi:apple-keyboard-control" x="104" y="875" height="20" width="20.0" class="key tap glyph mdi:apple-keyboard-control"/>
</g>
<g class="key keypos-22">
<rect rx="6" ry="6" x="144" y="842" width="52" height="52" class="key"/>
<use href="#mdi:apple-keyboard-option" xlink:href="#mdi:apple-keyboard-option" x="160" y="858" height="20" width="20.0" class="key tap glyph mdi:apple-keyboard-option"/>
</g>
<g class="key keypos-23">
<rect rx="6" ry="6" x="200" y="858" width="52" height="52" class="key"/>
<use href="#mdi:apple-keyboard-command" xlink:href="#mdi:apple-keyboard-command" x="216" y="874" height="20" width="20.0" class="key tap glyph mdi:apple-keyboard-command"/>
</g>
<g class="key keypos-24">
<rect rx="6" ry="6" x="256" y="866" width="52" height="52" class="key"/>
<text x="282" y="892" class="key tap">&quot;</text>
</g>
<g class="key keypos-25">
<rect rx="6" ry="6" x="424" y="866" width="52" height="52" class="key"/>
<use href="#mdi:keyboard-tab" xlink:href="#mdi:keyboard-tab" x="440" y="882" height="20" width="20.0" class="key tap glyph mdi:keyboard-tab"/>
</g>
<g class="key trans keypos-26">
<rect rx="6" ry="6" x="480" y="858" width="52" height="52" class="key trans"/>
<use href="#mdi:transfer" xlink:href="#mdi:transfer" x="496" y="874" height="20" width="20.0" class="key trans tap glyph mdi:transfer"/>
</g>
<g class="key keypos-27">
<rect rx="6" ry="6" x="536" y="842" width="52" height="52" class="key"/>
<use href="#mdi:apple-keyboard-control" xlink:href="#mdi:apple-keyboard-control" x="552" y="858" height="20" width="20.0" class="key tap glyph mdi:apple-keyboard-control"/>
</g>
<g class="key keypos-28">
<rect rx="6" ry="6" x="592" y="859" width="52" height="52" class="key"/>
<use href="#mdi:apple-keyboard-option" xlink:href="#mdi:apple-keyboard-option" x="608" y="875" height="20" width="20.0" class="key tap glyph mdi:apple-keyboard-option"/>
</g>
<g class="key enter keypos-29">
<rect rx="6" ry="6" x="648" y="894" width="52" height="52" class="key enter"/>
<use href="#mdi:keyboard-return" xlink:href="#mdi:keyboard-return" x="664" y="910" height="20" width="20.0" class="key enter tap glyph mdi:keyboard-return"/>
</g>
<g class="key trans keypos-30">
<rect rx="6" ry="6" x="228" y="940" width="52" height="52" class="key trans"/>
<use href="#mdi:transfer" xlink:href="#mdi:transfer" x="244" y="956" height="20" width="20.0" class="key trans tap glyph mdi:transfer"/>
</g>
<g class="key keypos-31">
<rect rx="6" ry="6" x="284" y="954" width="52" height="52" class="key"/>
<text x="310" y="980" class="key tap">adjust</text>
</g>
<g class="key held keypos-32">
<rect rx="6" ry="6" x="396" y="954" width="52" height="52" class="key held"/>
</g>
<g class="key trans keypos-33">
<rect rx="6" ry="6" x="452" y="940" width="52" height="52" class="key trans"/>
<use href="#mdi:transfer" xlink:href="#mdi:transfer" x="468" y="956" height="20" width="20.0" class="key trans tap glyph mdi:transfer"/>
</g>
<g class="combo combopos-0">
<rect rx="6" ry="6" x="128" y="752" width="28" height="26" class="combo"/>
<use href="#mdi:keyboard-esc" xlink:href="#mdi:keyboard-esc" x="132" y="755" height="20" width="20.0" class="combo tap glyph mdi:keyboard-esc"/>
</g>
<g class="combo combopos-1">
<rect rx="6" ry="6" x="576" y="864" width="28" height="26" class="combo"/>
<use href="#mdi:keyboard-return" xlink:href="#mdi:keyboard-return" x="580" y="867" height="20" width="20.0" class="combo tap glyph mdi:keyboard-return"/>
</g>
<g class="combo combopos-2">
<rect rx="6" ry="6" x="576" y="752" width="28" height="26" class="combo"/>
<use href="#mdi:backspace" xlink:href="#mdi:backspace" x="580" y="755" height="20" width="20.0" class="combo tap glyph mdi:backspace"/>
</g>
<g class="combo combopos-3">
<path d="M366,780 l-65,0" class="combo"/>
<path d="M366,780 l65,0" class="combo"/>
<rect rx="6" ry="6" x="352" y="767" width="28" height="26" class="combo"/>
<use href="#mdi:code-brackets" xlink:href="#mdi:code-brackets" x="356" y="770" height="20" width="20.0" class="combo tap glyph mdi:code-brackets"/>
</g>
<g class="combo combopos-4">
<path d="M366,836 l-65,0" class="combo"/>
<path d="M366,836 l65,0" class="combo"/>
<rect rx="6" ry="6" x="352" y="823" width="28" height="26" class="combo"/>
<use href="#mdi:code-parentheses" xlink:href="#mdi:code-parentheses" x="356" y="826" height="20" width="20.0" class="combo tap glyph mdi:code-parentheses"/>
</g>
<g class="combo combopos-5">
<path d="M366,892 l65,0" class="combo"/>
<path d="M366,892 l-65,0" class="combo"/>
<rect rx="6" ry="6" x="352" y="879" width="28" height="26" class="combo"/>
<use href="#mdi:code-braces" xlink:href="#mdi:code-braces" x="356" y="882" height="20" width="20.0" class="combo tap glyph mdi:code-braces"/>
</g>
<g class="combo combopos-6">
<rect rx="6" ry="6" x="128" y="864" width="28" height="26" class="combo"/>
<use href="#mdi:alpha-w-box" xlink:href="#mdi:alpha-w-box" x="132" y="867" height="20" width="20.0" class="combo tap glyph mdi:alpha-w-box"/>
</g>
</g>
<g class="layer-adjust">
<text x="30.0" y="1036.0" class="label">adjust:</text>
<g class="key keypos-0">
<rect rx="6" ry="6" x="32" y="1118" width="52" height="52" class="key"/>
<text x="58" y="1144" class="key tap">F1</text>
</g>
<g class="key keypos-1">
<rect rx="6" ry="6" x="88" y="1083" width="52" height="52" class="key"/>
<text x="114" y="1109" class="key tap">F2</text>
</g>
<g class="key keypos-2">
<rect rx="6" ry="6" x="144" y="1066" width="52" height="52" class="key"/>
<text x="170" y="1092" class="key tap">F3</text>
</g>
<g class="key keypos-3">
<rect rx="6" ry="6" x="200" y="1082" width="52" height="52" class="key"/>
<text x="226" y="1108" class="key tap">F4</text>
</g>
<g class="key keypos-4">
<rect rx="6" ry="6" x="256" y="1090" width="52" height="52" class="key"/>
<text x="282" y="1116" class="key tap">F5</text>
</g>
<g class="key keypos-5">
<rect rx="6" ry="6" x="424" y="1090" width="52" height="52" class="key"/>
<use href="#mdi:bluetooth-connect" xlink:href="#mdi:bluetooth-connect" x="440" y="1106" height="20" width="20.0" class="key tap glyph mdi:bluetooth-connect"/>
<text x="450" y="1140" class="key hold">0</text>
</g>
<g class="key keypos-6">
<rect rx="6" ry="6" x="480" y="1082" width="52" height="52" class="key"/>
<use href="#mdi:bluetooth-connect" xlink:href="#mdi:bluetooth-connect" x="496" y="1098" height="20" width="20.0" class="key tap glyph mdi:bluetooth-connect"/>
<text x="506" y="1132" class="key hold">1</text>
</g>
<g class="key keypos-7">
<rect rx="6" ry="6" x="536" y="1066" width="52" height="52" class="key"/>
<use href="#mdi:bluetooth-connect" xlink:href="#mdi:bluetooth-connect" x="552" y="1082" height="20" width="20.0" class="key tap glyph mdi:bluetooth-connect"/>
<text x="562" y="1116" class="key hold">2</text>
</g>
<g class="key keypos-8">
<rect rx="6" ry="6" x="592" y="1083" width="52" height="52" class="key"/>
<use href="#mdi:bluetooth-connect" xlink:href="#mdi:bluetooth-connect" x="608" y="1099" height="20" width="20.0" class="key tap glyph mdi:bluetooth-connect"/>
<text x="618" y="1133" class="key hold">3</text>
</g>
<g class="key keypos-9">
<rect rx="6" ry="6" x="648" y="1118" width="52" height="52" class="key"/>
<use href="#mdi:bluetooth-connect" xlink:href="#mdi:bluetooth-connect" x="664" y="1134" height="20" width="20.0" class="key tap glyph mdi:bluetooth-connect"/>
<text x="674" y="1168" class="key hold">4</text>
</g>
<g class="key keypos-10">
<rect rx="6" ry="6" x="32" y="1174" width="52" height="52" class="key"/>
<text x="58" y="1200" class="key tap">F6</text>
</g>
<g class="key keypos-11">
<rect rx="6" ry="6" x="88" y="1139" width="52" height="52" class="key"/>
<text x="114" y="1165" class="key tap">F7</text>
</g>
<g class="key keypos-12">
<rect rx="6" ry="6" x="144" y="1122" width="52" height="52" class="key"/>
<text x="170" y="1148" class="key tap">F8</text>
</g>
<g class="key keypos-13">
<rect rx="6" ry="6" x="200" y="1138" width="52" height="52" class="key"/>
<text x="226" y="1164" class="key tap">F9</text>
</g>
<g class="key keypos-14">
<rect rx="6" ry="6" x="256" y="1146" width="52" height="52" class="key"/>
<text x="282" y="1172" class="key tap">F10</text>
</g>
<g class="key none keypos-15">
<rect rx="6" ry="6" x="424" y="1146" width="52" height="52" class="key none"/>
<use href="#mdi:minus-circle-outline" xlink:href="#mdi:minus-circle-outline" x="440" y="1162" height="20" width="20.0" class="key none tap glyph mdi:minus-circle-outline"/>
</g>
<g class="key none keypos-16">
<rect rx="6" ry="6" x="480" y="1138" width="52" height="52" class="key none"/>
<use href="#mdi:minus-circle-outline" xlink:href="#mdi:minus-circle-outline" x="496" y="1154" height="20" width="20.0" class="key none tap glyph mdi:minus-circle-outline"/>
</g>
<g class="key none keypos-17">
<rect rx="6" ry="6" x="536" y="1122" width="52" height="52" class="key none"/>
<use href="#mdi:minus-circle-outline" xlink:href="#mdi:minus-circle-outline" x="552" y="1138" height="20" width="20.0" class="key none tap glyph mdi:minus-circle-outline"/>
</g>
<g class="key none keypos-18">
<rect rx="6" ry="6" x="592" y="1139" width="52" height="52" class="key none"/>
<use href="#mdi:minus-circle-outline" xlink:href="#mdi:minus-circle-outline" x="608" y="1155" height="20" width="20.0" class="key none tap glyph mdi:minus-circle-outline"/>
</g>
<g class="key none keypos-19">
<rect rx="6" ry="6" x="648" y="1174" width="52" height="52" class="key none"/>
<use href="#mdi:minus-circle-outline" xlink:href="#mdi:minus-circle-outline" x="664" y="1190" height="20" width="20.0" class="key none tap glyph mdi:minus-circle-outline"/>
</g>
<g class="key keypos-20">
<rect rx="6" ry="6" x="32" y="1230" width="52" height="52" class="key"/>
<text x="58" y="1256" class="key tap">F11</text>
</g>
<g class="key keypos-21">
<rect rx="6" ry="6" x="88" y="1195" width="52" height="52" class="key"/>
<text x="114" y="1221" class="key tap">F12</text>
</g>
<g class="key none keypos-22">
<rect rx="6" ry="6" x="144" y="1178" width="52" height="52" class="key none"/>
<use href="#mdi:minus-circle-outline" xlink:href="#mdi:minus-circle-outline" x="160" y="1194" height="20" width="20.0" class="key none tap glyph mdi:minus-circle-outline"/>
</g>
<g class="key none keypos-23">
<rect rx="6" ry="6" x="200" y="1194" width="52" height="52" class="key none"/>
<use href="#mdi:minus-circle-outline" xlink:href="#mdi:minus-circle-outline" x="216" y="1210" height="20" width="20.0" class="key none tap glyph mdi:minus-circle-outline"/>
</g>
<g class="key keypos-24">
<rect rx="6" ry="6" x="256" y="1202" width="52" height="52" class="key"/>
<use href="#tabler:screenshot" xlink:href="#tabler:screenshot" x="272" y="1218" height="20" width="20.0" class="key tap glyph tabler:screenshot"/>
</g>
<g class="key keypos-25">
<rect rx="6" ry="6" x="424" y="1202" width="52" height="52" class="key"/>
<text x="450" y="1228" class="key tap">LG(TAB)</text>
</g>
<g class="key keypos-26">
<rect rx="6" ry="6" x="480" y="1194" width="52" height="52" class="key"/>
<text x="506" y="1220" class="key tap" style="font-size: 78%">LG(GRAVE)</text>
</g>
<g class="key none keypos-27">
<rect rx="6" ry="6" x="536" y="1178" width="52" height="52" class="key none"/>
<use href="#mdi:minus-circle-outline" xlink:href="#mdi:minus-circle-outline" x="552" y="1194" height="20" width="20.0" class="key none tap glyph mdi:minus-circle-outline"/>
</g>
<g class="key keypos-28">
<rect rx="6" ry="6" x="592" y="1195" width="52" height="52" class="key"/>
<use href="#mdi:backup-restore" xlink:href="#mdi:backup-restore" x="608" y="1211" height="20" width="20.0" class="key tap glyph mdi:backup-restore"/>
</g>
<g class="key bootloader keypos-29">
<rect rx="6" ry="6" x="648" y="1230" width="52" height="52" class="key bootloader"/>
<use href="#mdi:progress-download" xlink:href="#mdi:progress-download" x="664" y="1246" height="20" width="20.0" class="key bootloader tap glyph mdi:progress-download"/>
</g>
<g class="key trans keypos-30">
<rect rx="6" ry="6" x="228" y="1276" width="52" height="52" class="key trans"/>
<use href="#mdi:transfer" xlink:href="#mdi:transfer" x="244" y="1292" height="20" width="20.0" class="key trans tap glyph mdi:transfer"/>
</g>
<g class="key held keypos-31">
<rect rx="6" ry="6" x="284" y="1290" width="52" height="52" class="key held"/>
</g>
<g class="key held keypos-32">
<rect rx="6" ry="6" x="396" y="1290" width="52" height="52" class="key held"/>
</g>
<g class="key trans keypos-33">
<rect rx="6" ry="6" x="452" y="1276" width="52" height="52" class="key trans"/>
<use href="#mdi:transfer" xlink:href="#mdi:transfer" x="468" y="1292" height="20" width="20.0" class="key trans tap glyph mdi:transfer"/>
</g>
<g class="combo combopos-0">
<rect rx="6" ry="6" x="128" y="1088" width="28" height="26" class="combo"/>
<use href="#mdi:keyboard-esc" xlink:href="#mdi:keyboard-esc" x="132" y="1091" height="20" width="20.0" class="combo tap glyph mdi:keyboard-esc"/>
</g>
<g class="combo combopos-1">
<rect rx="6" ry="6" x="576" y="1200" width="28" height="26" class="combo"/>
<use href="#mdi:keyboard-return" xlink:href="#mdi:keyboard-return" x="580" y="1203" height="20" width="20.0" class="combo tap glyph mdi:keyboard-return"/>
</g>
<g class="combo combopos-2">
<rect rx="6" ry="6" x="576" y="1088" width="28" height="26" class="combo"/>
<use href="#mdi:backspace" xlink:href="#mdi:backspace" x="580" y="1091" height="20" width="20.0" class="combo tap glyph mdi:backspace"/>
</g>
<g class="combo combopos-3">
<path d="M366,1116 l-65,0" class="combo"/>
<path d="M366,1116 l65,0" class="combo"/>
<rect rx="6" ry="6" x="352" y="1103" width="28" height="26" class="combo"/>
<use href="#mdi:code-brackets" xlink:href="#mdi:code-brackets" x="356" y="1106" height="20" width="20.0" class="combo tap glyph mdi:code-brackets"/>
</g>
<g class="combo combopos-4">
<path d="M366,1172 l-65,0" class="combo"/>
<path d="M366,1172 l65,0" class="combo"/>
<rect rx="6" ry="6" x="352" y="1159" width="28" height="26" class="combo"/>
<use href="#mdi:code-parentheses" xlink:href="#mdi:code-parentheses" x="356" y="1162" height="20" width="20.0" class="combo tap glyph mdi:code-parentheses"/>
</g>
<g class="combo combopos-5">
<path d="M366,1228 l65,0" class="combo"/>
<path d="M366,1228 l-65,0" class="combo"/>
<rect rx="6" ry="6" x="352" y="1215" width="28" height="26" class="combo"/>
<use href="#mdi:code-braces" xlink:href="#mdi:code-braces" x="356" y="1218" height="20" width="20.0" class="combo tap glyph mdi:code-braces"/>
</g>
<g class="combo combopos-6">
<rect rx="6" ry="6" x="128" y="1200" width="28" height="26" class="combo"/>
<use href="#mdi:alpha-w-box" xlink:href="#mdi:alpha-w-box" x="132" y="1203" height="20" width="20.0" class="combo tap glyph mdi:alpha-w-box"/>
</g>
</g>
</svg>
